<svg width="50px" height="50px" viewBox="0 0 50 50" version="1.1" xmlns="http://www.w3.org/2000/svg" xmlns:xlink="http://www.w3.org/1999/xlink">
	<title>logo</title>
	<g id="logo" stroke="none" stroke-width="1" fill="none" fill-rule="evenodd">
		<g id="Group">
			<g id="logoblock">
				<g id="hando">
					<polygon id="Fill-1" fill="#008BFF" points="2.31876328 47.7305593 47.6577463 47.7305593 47.6577463 13.217285 2.31876328 13.217285"></polygon>
					<path d="M32.5087313,14.7648155 C30.6942404,14.7648155 29.218039,16.3061206 29.218039,18.2013672 L29.218039,24.9170537 C28.790378,24.7008109 28.3111082,24.5828304 27.8079221,24.5828304 C26.8865157,24.5828304 26.0544807,24.9804805 25.4575175,25.6186925 C24.8605544,24.9804805 24.0285194,24.5828304 23.1074276,24.5828304 C22.6042415,24.5828304 22.124657,24.7008109 21.6969961,24.9170537 L21.6969961,18.2013672 C21.6969961,16.3061206 20.2211094,14.7648155 18.4066184,14.7648155 C16.5918128,14.7648155 15.1159261,16.3061206 15.1159261,18.2013672 L15.1159261,35.3831397 C15.1159261,41.3377041 19.7556858,46.1831203 25.4575175,46.1831203 C31.1266217,46.1831203 35.7475001,41.3919291 35.7943886,35.481402 C35.7994236,35.4468951 35.7994236,35.4173179 35.7994236,35.3831397 L35.7994236,18.2013672 C35.7994236,16.3061206 34.3232223,14.7648155 32.5087313,14.7648155" id="Fill-2" fill="#FFFFFF"></path>
					<path d="M25.4104402,43.841914 C20.9248776,43.841914 17.2792172,40.0300595 17.2792172,35.350276 L17.2792172,18.8389219 C17.2792172,18.0603821 17.8890826,17.4234846 18.6345784,17.4234846 C19.3797596,17.4234846 19.9896249,18.0603821 19.9896249,18.8389219 L19.9896249,30.6326993 C19.9896249,31.4066382 20.1658502,32.4490732 20.640085,33.4254521 C21.3720492,34.9306072 22.8130055,36.2937913 25.4104402,36.2937913 L25.7402332,36.2937913 C25.0129893,37.1571194 24.506971,38.3789898 24.506971,40.0678527 C24.506971,40.5867697 24.9135479,41.011368 25.4104402,41.011368 C25.9073326,41.011368 26.3139094,40.5867697 26.3139094,40.0678527 C26.3139094,36.4308328 29.5618042,36.2983923 29.9277863,36.2937913 C30.4246787,36.2937913 30.8312555,35.869193 30.8312555,35.350276 C30.8312555,34.831359 30.4246787,34.4067607 29.9277863,34.4067607 L25.4104402,34.4067607 C24.2089615,34.4067607 23.4093393,34.0058242 22.8762578,33.4632453 C22.3069873,32.8878029 22.0407612,32.1565867 21.9095363,31.5762147 L29.9233807,31.5762147 C30.0316334,31.5762147 30.3840839,31.590346 30.8312555,31.6987961 C31.7665082,31.921283 33.1171491,32.5670537 33.4604737,34.4067607 C33.5146,34.6897167 33.5416632,35.005865 33.5416632,35.350276 C33.5416632,35.6710252 33.523726,35.9825726 33.4919425,36.2937913 C33.0403652,40.5302442 29.5844617,43.841914 25.4104402,43.841914 L25.4104402,43.841914 Z M21.7965633,28.2740753 C21.7965633,27.4955355 22.4064287,26.858638 23.1519245,26.858638 C23.8971057,26.858638 24.506971,27.4955355 24.506971,28.2740753 L24.506971,29.689184 L21.7965633,29.689184 L21.7965633,28.2740753 Z M26.3139094,28.2740753 C26.3139094,27.4955355 26.9237748,26.858638 27.6692706,26.858638 C28.4144518,26.858638 29.0243171,27.4955355 29.0243171,28.2740753 L29.0243171,29.689184 L26.3139094,29.689184 L26.3139094,28.2740753 Z M30.8312555,18.8389219 C30.8312555,18.0603821 31.4411209,17.4234846 32.1866167,17.4234846 C32.9317979,17.4234846 33.5416632,18.0603821 33.5416632,18.8389219 L33.5416632,31.0007722 C32.6970406,30.2882883 31.69413,29.9205441 30.8312555,29.7693713 L30.8312555,18.8389219 Z M32.1866167,15.5364539 C30.4429306,15.5364539 29.0243171,17.0179472 29.0243171,18.8389219 L29.0243171,25.2926852 C28.6133346,25.0849869 28.1523167,24.9716073 27.6692706,24.9716073 C26.7837386,24.9716073 25.9841164,25.3538115 25.4104402,25.9670472 C24.836764,25.3538115 24.0371418,24.9716073 23.1519245,24.9716073 C22.6685638,24.9716073 22.2075459,25.0849869 21.7965633,25.2926852 L21.7965633,18.8389219 C21.7965633,17.0179472 20.3782646,15.5364539 18.6345784,15.5364539 C16.8908923,15.5364539 15.4722788,17.0179472 15.4722788,18.8389219 L15.4722788,35.350276 C15.4722788,41.0728231 19.9307782,45.7289447 25.4104402,45.7289447 C30.8583187,45.7289447 35.2988809,41.1247476 35.344196,35.4445947 C35.3486016,35.411731 35.3486016,35.3834683 35.3486016,35.350276 L35.3486016,18.8389219 C35.3486016,17.0179472 33.9303029,15.5364539 32.1866167,15.5364539 L32.1866167,15.5364539 Z" id="Fill-4" fill="#0F1031"></path>
					<path d="M3.06960691,46.9603127 L46.8788955,46.9603127 L46.8788955,13.9970878 L3.06960691,13.9970878 L3.06960691,46.9603127 Z M40.7667106,7.26464086 L40.7667106,8.6081068 C40.7667106,10.4428843 39.3373978,11.9355512 37.5804947,11.9355512 C36.7295784,11.9355512 35.9293269,11.5891683 35.3276434,10.9604867 C34.72596,10.3318051 34.3945935,9.49542529 34.3952229,8.60744952 L34.3952229,7.26464086 L15.5523354,7.26464086 L15.5523354,8.6081068 C15.5523354,10.4428843 14.1230226,11.9355512 12.3661195,11.9355512 C11.5148885,11.9355512 10.7149516,11.5891683 10.1132682,10.9604867 C9.51127007,10.3318051 9.18021831,9.49542529 9.180533,8.60744952 L9.180533,7.26464086 L0.0231124807,7.26464086 L0.0231124807,49.5578555 L49.9244458,49.5578555 L49.9244458,7.26464086 L40.7667106,7.26464086 Z" id="Fill-6" fill="#0F1031"></path>
					<path d="M12.3662454,9.77364894 C12.9824045,9.77364894 13.4824437,9.25210284 13.4824437,8.60797534 L13.4824437,1.1656736 C13.4824437,0.522203368 12.9824045,1.42108547e-14 12.3662454,1.42108547e-14 C11.750401,1.42108547e-14 11.2506765,0.522203368 11.2506765,1.1656736 L11.2506765,8.60764671 C11.2503618,9.25210284 11.7500863,9.77364894 12.3662454,9.77364894" id="Fill-8" fill="#0F1031"></path>
					<path d="M37.5918235,9.77364894 C38.2082973,9.77364894 38.7080218,9.25210284 38.7080218,8.60797534 L38.7080218,1.1656736 C38.7080218,0.522203368 38.2079826,1.42108547e-14 37.5918235,1.42108547e-14 C36.9762938,1.42108547e-14 36.4765693,0.522203368 36.4765693,1.1656736 L36.4765693,8.60764671 C36.4759399,9.25210284 36.9756644,9.77364894 37.5918235,9.77364894" id="Fill-9" fill="#0F1031"></path>
					<path d="M35.3486016,35.3503089 C35.3486016,35.3835012 35.3486016,35.4117639 35.344196,35.4446275 C35.2988809,41.1247805 30.8583187,45.7289776 25.4104402,45.7289776 C19.9307782,45.7289776 15.4722788,41.0728559 15.4722788,35.3503089 L15.4722788,18.8389548 C15.4722788,17.0179801 16.8908923,15.5364868 18.6345784,15.5364868 C20.3782646,15.5364868 21.7965633,17.0179801 21.7965633,18.8389548 L21.7965633,25.292718 C22.2075459,25.0850198 22.6685638,24.9716402 23.1519245,24.9716402 C24.0371418,24.9716402 24.836764,25.3538444 25.4104402,25.9670801 C25.9841164,25.3538444 26.7837386,24.9716402 27.6692706,24.9716402 C28.1523167,24.9716402 28.6133346,25.0850198 29.0243171,25.292718 L29.0243171,18.8389548 C29.0243171,17.0179801 30.4429306,15.5364868 32.1866167,15.5364868 C33.9303029,15.5364868 35.3486016,17.0179801 35.3486016,18.8389548 L35.3486016,35.3503089 Z M32.1866167,14.6580415 C29.9790805,14.6580415 28.1831561,16.5335699 28.1831561,18.8389548 L28.1831561,24.1270444 C28.0141686,24.1043685 27.8426637,24.0931949 27.6692706,24.0931949 C26.8501378,24.0931949 26.0706556,24.3482168 25.4104402,24.8230965 C24.7502248,24.3482168 23.9707427,24.0931949 23.1519245,24.0931949 C22.9782167,24.0931949 22.8067118,24.1043685 22.6377243,24.1270444 L22.6377243,18.8389548 C22.6377243,16.5335699 20.8418,14.6580415 18.6345784,14.6580415 C16.4270422,14.6580415 14.6311178,16.5335699 14.6311178,18.8389548 L14.6311178,35.3503089 C14.6311178,41.5575947 19.4666135,46.6074229 25.4104402,46.6074229 C31.2888119,46.6074229 36.1132935,41.626937 36.1847276,35.4958948 C36.1897626,35.4354257 36.1897626,35.3861303 36.1897626,35.3503089 L36.1897626,18.8389548 C36.1897626,16.5335699 34.3938383,14.6580415 32.1866167,14.6580415 L32.1866167,14.6580415 Z" id="Fill-10" fill="#008BFF"></path>
				</g>
			</g>
		</g>
	</g>
</svg>
