<svg width="50px" height="50px" viewBox="0 0 50 50" version="1.1" xmlns="http://www.w3.org/2000/svg" xmlns:xlink="http://www.w3.org/1999/xlink">
	<title>logo</title>
	<g id="logo" stroke="none" stroke-width="1" fill="none" fill-rule="evenodd">
		<g id="TEC-horns-2020" transform="translate(5.000000, 0.000000)" fill="#FFFFFF" fill-rule="nonzero">
			<path d="M22.1529506,32.566891 C20.5376494,33.2221916 19.0427096,33.5756855 17.9558422,33.5171313 C16.5480108,33.4386976 15.9469265,32.8177337 15.944755,32.5842404 C15.9436735,32.4179753 16.4684928,31.8971319 18.0888542,31.7793006 C18.3429506,31.7612283 18.6111434,31.749662 18.887288,31.749662 C19.9943964,31.749662 21.2265651,31.9318307 22.1529506,32.566891 M25.1746373,46.8436367 C19.2516253,48.4773717 12.9924693,46.9705042 9.22656566,43.0014681 C6.5616259,40.1930349 5.66813193,36.6783361 6.77451747,33.3588181 C9.0003006,26.6800235 19.667288,22.6712283 26.4845163,22.6712283 C26.5578898,22.6712283 26.6309018,22.6715898 26.703191,22.6726741 C29.2434319,22.7052042 31.0025886,23.3193006 31.2942753,24.2760476 C31.4576488,24.8113488 31.0712633,25.7485777 30.2605404,26.7823127 C28.829938,28.6065295 26.656203,30.2597825 24.4452398,31.4724331 C23.043553,29.9344813 20.7949988,29.2347223 17.9193361,29.4418307 C14.7180114,29.6742404 13.5895777,31.2277343 13.601144,32.6041199 C13.6137946,34.1048422 15.0689753,35.7042398 17.8257217,35.8574928 C19.4941554,35.9485771 21.4882518,35.4346012 23.4906614,34.5584566 C23.7845169,35.7114687 23.6934325,37.2241193 23.2127096,39.0277337 C23.0460831,39.6526735 23.4176494,40.2953241 24.0429506,40.4619506 C24.6675289,40.6285771 25.3101795,40.2570108 25.4771675,39.6313482 C26.1306608,37.1807458 26.1790946,35.1252036 25.6246367,33.4921916 C28.2389741,32.0250837 30.6556006,30.0761681 32.1046367,28.2288187 C33.4643958,26.4949633 33.9458416,24.9349633 33.5363235,23.5918307 C33.2388536,22.6166506 32.5383717,21.8431566 31.48295,21.2944819 C31.5635524,12.4882175 33.1246367,6.40544639 34.529938,6.39713313 L34.5386127,6.39713313 C34.7449982,6.39713313 35.0243958,6.44339819 35.3666849,6.78351867 C36.5084916,7.91845843 37.8689735,11.6442416 37.8689735,22.949903 C37.8689735,34.1052036 36.9140337,43.6029139 25.1746373,46.8436367 M13.9929512,20.8253253 C13.9915054,20.7960482 13.9951199,20.7671325 13.9915054,20.737494 C13.9864452,20.6952048 13.9813849,20.6503855 13.9759633,20.607012 C13.8075295,18.2023133 14.0959633,16.307253 14.8293367,15.2908675 C15.1936741,14.7862892 15.650541,14.5159277 16.2675289,14.4400241 C17.1277699,14.3362892 17.8275289,14.5582169 18.4152398,15.1227952 C19.5534325,16.2168916 20.2177699,18.5825542 20.1545169,21.170506 C18.2030711,21.6519518 16.2049988,22.3376145 14.3066861,23.2202645 C14.1570476,22.3802651 14.0536741,21.5800241 13.9929512,20.8253253 M24.0884928,16.7420723 C24.520059,16.2725542 25.070541,16.0441205 25.7728295,16.0441205 C26.8889741,16.0441205 27.3740343,16.4091807 27.6422271,16.6838795 C28.2834319,17.3406265 28.6289741,18.6143614 28.6763235,20.4693012 C28.075962,20.3861687 27.4286127,20.3377349 26.733191,20.3290602 C26.6540343,20.3279759 26.5752392,20.3276145 26.4953596,20.3276145 C25.4374084,20.3276145 24.2843964,20.4194217 23.0807819,20.5943614 C23.0287337,18.8944819 23.3840349,17.5094217 24.0884928,16.7420723 M37.0192145,5.12122952 C36.3162024,4.42219337 35.4581307,4.05315723 34.536444,4.05315723 L34.5158416,4.05315723 C31.4280102,4.07159096 30.3628295,8.67857892 29.829697,12.1423139 C29.6735524,13.1586988 29.5528295,14.1960482 29.4588536,15.2001446 C29.41295,15.1488193 29.3677693,15.0956867 29.319697,15.0465301 C28.4478898,14.1533976 27.2543958,13.700506 25.7728295,13.700506 C24.4163241,13.700506 23.2369265,14.2036386 22.3622277,15.1564096 C22.1128301,15.4282169 21.8984928,15.7430361 21.7047578,16.0806265 C21.3183723,15.0638795 20.7780108,14.1432771 20.0395771,13.4330361 C18.9422277,12.3786994 17.5401795,11.9221934 15.9816253,12.1137596 C14.7256018,12.268097 13.6698187,12.8919518 12.9284934,13.9191807 C12.9256018,13.9238795 12.9230717,13.9289398 12.9198187,13.9329157 C11.6356018,7.52809699 9.19403554,-0.205757952 4.93403614,0.236651627 C3.88584337,0.34689259 2.95945783,0.911109458 2.25572289,1.86749518 C-1.03054217,6.33496446 0.511385542,19.6195422 1.94018072,26.7646018 C2.05186747,27.3215898 2.54090361,27.7072524 3.08813253,27.7072524 C3.16439759,27.7072524 3.24174699,27.699662 3.31945783,27.6841199 C3.95379518,27.5572524 4.36548193,26.939903 4.23861446,26.3052042 C1.84584337,14.3413494 2.3796988,5.65436205 4.14391566,3.25653072 C4.55849398,2.69303675 4.93331325,2.59327771 5.17945783,2.56761506 C7.53102349,2.32291687 10.4280114,10.5393018 11.6507825,20.9095422 C11.7487343,22.193759 11.9431922,23.3962886 12.1307825,24.3309873 C12.1315054,24.3353247 12.1336741,24.3393006 12.134397,24.343638 C8.61283072,26.3735175 5.70680663,29.1490596 4.55090361,32.6178548 C3.16150602,36.7849627 4.24620482,41.1580952 7.5263247,44.614962 C10.7287343,47.9894199 15.4535536,49.8346006 20.413312,49.8346006 C22.1977699,49.8346006 24.013312,49.5953235 25.7981307,49.1026729 C39.1105398,45.4282151 40.2129494,34.6350831 40.2129494,22.949903 C40.2129494,12.9523133 39.1980096,7.2873741 37.0192145,5.12122952"></path>
		</g>
	</g>
</svg>
